# xmcd CD database file
#
# Track frame offsets:
#	151
#	17550
#	35716
#	53317
#	73195
#	92566
#	108662
#	123724
#	142188
#	158384
#	172807
#	188732
#	205021
#	219856
#	240336
#	264646
#	283390
#	303578
#	321086
#	339029
#
# Disc length: 4738 seconds
#
# Revision: 7
# Processed by: cddbd v1.5.2PL0 Copyright (c) Steve Scherf et al.
# Submitted via: CDex 1.51
#
DISCID=17128014
DTITLE=Various Artist - Woman
DYEAR=2000
DGENRE=Acapella
TTITLE0=Shania Twain - That don't impress me much
TTITLE1=Texas - Summer Son
TTITLE2=Vonda Shepard - Searching my soul
TTITLE3=Jennifer Lopez - If you had my love
TTITLE4=The Corrs - What can i do
TTITLE5=Mariah Carey - Without you
TTITLE6=Jennifer Paige - Crush
TTITLE7=Gloria Stefan - Don't wanna lose you
TTITLE8=Tamara - Si nos dejan
TTITLE9=La oreja de Van Gogh - Cuéntame al oido
TTITLE10=Britney Spears - ...Baby one more time
TTITLE11=Jessica - How will i know
TTITLE12=Sixpence none the richer - Kiss me
TTITLE13=The Cranberries - Dreams
TTITLE14=Sheryl Crow - If it makes you happy
TTITLE15=Gabrielle - Sunshine
TTITLE16=Celine Dion - Where does my heart beat now
TTITLE17=Des'ree - Feel so high
TTITLE18=Lauryn Hill - Do wop (that thing)
TTITLE19=Janet Jackson - Runaway
EXTD=YEAR: 2000
EXTT0=
EXTT1=
EXTT2=
EXTT3=
EXTT4=
EXTT5=
EXTT6=
EXTT7=
EXTT8=
EXTT9=
EXTT10=
EXTT11=
EXTT12=
EXTT13=
EXTT14=
EXTT15=
EXTT16=
EXTT17=
EXTT18=
EXTT19=
PLAYORDER=
